<mxfile host="app.diagrams.net" modified="2022-06-08T04:31:54.769Z" agent="5.0 (Macintosh; Intel Mac OS X 10_13_6) AppleWebKit/537.36 (KHTML, like Gecko) Chrome/102.0.0.0 Safari/537.36" etag="c9YYgqptB_rKanSum851" version="19.0.2" type="github">
  <diagram id="0d6YVnXEMLt_abe9QLZ7" name="Page-1">
    <mxGraphModel dx="1426" dy="803" grid="1" gridSize="10" guides="1" tooltips="1" connect="1" arrows="1" fold="1" page="1" pageScale="1" pageWidth="827" pageHeight="1169" math="0" shadow="0">
      <root>
        <mxCell id="0" />
        <mxCell id="1" parent="0" />
        <mxCell id="x0v3fOZ2a3Th3e30xJ1n-29" style="edgeStyle=orthogonalEdgeStyle;rounded=0;orthogonalLoop=1;jettySize=auto;html=1;exitX=1;exitY=0.5;exitDx=0;exitDy=0;entryX=0;entryY=0.5;entryDx=0;entryDy=0;entryPerimeter=0;" edge="1" parent="1" source="x0v3fOZ2a3Th3e30xJ1n-27" target="x0v3fOZ2a3Th3e30xJ1n-28">
          <mxGeometry relative="1" as="geometry" />
        </mxCell>
        <mxCell id="x0v3fOZ2a3Th3e30xJ1n-27" value="" style="ellipse;whiteSpace=wrap;html=1;" vertex="1" parent="1">
          <mxGeometry x="160" y="200" width="70" height="60" as="geometry" />
        </mxCell>
        <mxCell id="x0v3fOZ2a3Th3e30xJ1n-28" value="" style="shape=cylinder3;whiteSpace=wrap;html=1;boundedLbl=1;backgroundOutline=1;size=15;" vertex="1" parent="1">
          <mxGeometry x="360" y="190" width="60" height="80" as="geometry" />
        </mxCell>
      </root>
    </mxGraphModel>
  </diagram>
</mxfile>
